<mxfile host="app.diagrams.net" modified="2022-05-17T22:53:26.883Z" agent="5.0 (Windows NT 10.0; Win64; x64) AppleWebKit/537.36 (KHTML, like Gecko) Chrome/101.0.4951.67 Safari/537.36" etag="nppO7JqZPneulXn0XcHC" version="18.0.2" type="github">
  <diagram id="DHmuu2M7g8fE88F-73Ma" name="Page-1">
    <mxGraphModel dx="1422" dy="786" grid="1" gridSize="10" guides="1" tooltips="1" connect="1" arrows="1" fold="1" page="1" pageScale="1" pageWidth="827" pageHeight="1169" math="0" shadow="0">
      <root>
        <mxCell id="0" />
        <mxCell id="1" parent="0" />
        <mxCell id="zLu3VVL79DZKazjj4UHu-55" style="edgeStyle=orthogonalEdgeStyle;rounded=0;orthogonalLoop=1;jettySize=auto;html=1;fontSize=10;" parent="1" source="zLu3VVL79DZKazjj4UHu-3" edge="1">
          <mxGeometry relative="1" as="geometry">
            <mxPoint x="920" y="460" as="targetPoint" />
            <Array as="points">
              <mxPoint x="890" y="460" />
              <mxPoint x="890" y="460" />
            </Array>
          </mxGeometry>
        </mxCell>
        <mxCell id="zLu3VVL79DZKazjj4UHu-3" value="" style="strokeWidth=1;shadow=0;dashed=0;align=center;html=1;shape=mxgraph.mockup.containers.browserWindow;rSize=0;strokeColor=#666666;strokeColor2=#008cff;strokeColor3=#c4c4c4;mainText=,;recursiveResize=0;" parent="1" vertex="1">
          <mxGeometry x="80" y="100" width="740" height="720" as="geometry" />
        </mxCell>
        <mxCell id="zLu3VVL79DZKazjj4UHu-4" value="Page 1" style="strokeWidth=1;shadow=0;dashed=0;align=center;html=1;shape=mxgraph.mockup.containers.anchor;fontSize=17;fontColor=#666666;align=left;" parent="zLu3VVL79DZKazjj4UHu-3" vertex="1">
          <mxGeometry x="60" y="12" width="110" height="26" as="geometry" />
        </mxCell>
        <mxCell id="zLu3VVL79DZKazjj4UHu-5" value="https://www.draw.io" style="strokeWidth=1;shadow=0;dashed=0;align=center;html=1;shape=mxgraph.mockup.containers.anchor;rSize=0;fontSize=17;fontColor=#666666;align=left;" parent="zLu3VVL79DZKazjj4UHu-3" vertex="1">
          <mxGeometry x="130" y="60" width="250" height="26" as="geometry" />
        </mxCell>
        <mxCell id="zLu3VVL79DZKazjj4UHu-9" value="Search" style="strokeWidth=1;shadow=0;dashed=0;align=center;html=1;shape=mxgraph.mockup.forms.searchBox;strokeColor=#999999;mainText=;strokeColor2=#008cff;fontColor=#666666;fontSize=17;align=left;spacingLeft=3;" parent="zLu3VVL79DZKazjj4UHu-3" vertex="1">
          <mxGeometry x="50" y="200" width="220" height="30" as="geometry" />
        </mxCell>
        <mxCell id="zLu3VVL79DZKazjj4UHu-10" value="Search" style="strokeWidth=1;shadow=0;dashed=0;align=center;html=1;shape=mxgraph.mockup.forms.searchBox;strokeColor=#999999;mainText=;strokeColor2=#008cff;fontColor=#666666;fontSize=17;align=left;spacingLeft=3;" parent="zLu3VVL79DZKazjj4UHu-3" vertex="1">
          <mxGeometry x="420" y="200" width="220" height="30" as="geometry" />
        </mxCell>
        <mxCell id="zLu3VVL79DZKazjj4UHu-11" value="" style="rounded=0;whiteSpace=wrap;html=1;" parent="zLu3VVL79DZKazjj4UHu-3" vertex="1">
          <mxGeometry x="195" y="290" width="300" height="100" as="geometry" />
        </mxCell>
        <mxCell id="zLu3VVL79DZKazjj4UHu-13" value="&lt;h1&gt;Welcome&amp;nbsp;&lt;/h1&gt;&lt;p&gt;Please search for a movie you would like to compare with another movie&lt;/p&gt;" style="text;html=1;strokeColor=none;fillColor=none;spacing=5;spacingTop=-20;whiteSpace=wrap;overflow=hidden;rounded=0;" parent="zLu3VVL79DZKazjj4UHu-3" vertex="1">
          <mxGeometry x="240" y="295" width="210" height="90" as="geometry" />
        </mxCell>
        <mxCell id="zLu3VVL79DZKazjj4UHu-7" value="" style="rounded=0;whiteSpace=wrap;html=1;" parent="zLu3VVL79DZKazjj4UHu-3" vertex="1">
          <mxGeometry y="120" width="740" height="60" as="geometry" />
        </mxCell>
        <mxCell id="zLu3VVL79DZKazjj4UHu-8" value="Movie fight" style="text;strokeColor=none;fillColor=none;html=1;fontSize=24;fontStyle=1;verticalAlign=middle;align=center;" parent="zLu3VVL79DZKazjj4UHu-3" vertex="1">
          <mxGeometry x="40" y="130" width="100" height="40" as="geometry" />
        </mxCell>
        <mxCell id="zLu3VVL79DZKazjj4UHu-15" value="" style="strokeWidth=1;shadow=0;dashed=0;align=center;html=1;shape=mxgraph.mockup.containers.browserWindow;rSize=0;strokeColor=#666666;strokeColor2=#008cff;strokeColor3=#c4c4c4;mainText=,;recursiveResize=0;" parent="1" vertex="1">
          <mxGeometry x="930" y="100" width="700" height="720" as="geometry" />
        </mxCell>
        <mxCell id="zLu3VVL79DZKazjj4UHu-25" value="" style="rounded=0;whiteSpace=wrap;html=1;" parent="zLu3VVL79DZKazjj4UHu-15" vertex="1">
          <mxGeometry x="50" y="230" width="220" height="210" as="geometry" />
        </mxCell>
        <mxCell id="zLu3VVL79DZKazjj4UHu-56" value="" style="rounded=0;whiteSpace=wrap;html=1;fontSize=10;" parent="zLu3VVL79DZKazjj4UHu-15" vertex="1">
          <mxGeometry x="50" y="230" width="220" height="60" as="geometry" />
        </mxCell>
        <mxCell id="zLu3VVL79DZKazjj4UHu-16" value="Page 1" style="strokeWidth=1;shadow=0;dashed=0;align=center;html=1;shape=mxgraph.mockup.containers.anchor;fontSize=17;fontColor=#666666;align=left;" parent="zLu3VVL79DZKazjj4UHu-15" vertex="1">
          <mxGeometry x="60" y="12" width="110" height="26" as="geometry" />
        </mxCell>
        <mxCell id="zLu3VVL79DZKazjj4UHu-17" value="https://www.draw.io" style="strokeWidth=1;shadow=0;dashed=0;align=center;html=1;shape=mxgraph.mockup.containers.anchor;rSize=0;fontSize=17;fontColor=#666666;align=left;" parent="zLu3VVL79DZKazjj4UHu-15" vertex="1">
          <mxGeometry x="130" y="60" width="250" height="26" as="geometry" />
        </mxCell>
        <mxCell id="zLu3VVL79DZKazjj4UHu-18" value="dark knigh" style="strokeWidth=1;shadow=0;dashed=0;align=center;html=1;shape=mxgraph.mockup.forms.searchBox;strokeColor=#999999;mainText=;strokeColor2=#008cff;fontColor=#666666;fontSize=17;align=left;spacingLeft=3;" parent="zLu3VVL79DZKazjj4UHu-15" vertex="1">
          <mxGeometry x="50" y="200" width="220" height="30" as="geometry" />
        </mxCell>
        <mxCell id="zLu3VVL79DZKazjj4UHu-19" value="Search" style="strokeWidth=1;shadow=0;dashed=0;align=center;html=1;shape=mxgraph.mockup.forms.searchBox;strokeColor=#999999;mainText=;strokeColor2=#008cff;fontColor=#666666;fontSize=17;align=left;spacingLeft=3;" parent="zLu3VVL79DZKazjj4UHu-15" vertex="1">
          <mxGeometry x="420" y="200" width="220" height="30" as="geometry" />
        </mxCell>
        <mxCell id="zLu3VVL79DZKazjj4UHu-26" value="" style="shape=image;html=1;verticalAlign=top;verticalLabelPosition=bottom;labelBackgroundColor=#ffffff;imageAspect=0;aspect=fixed;image=https://cdn1.iconfinder.com/data/icons/seo-and-web-development-6/32/development_picture_illustration_design_image-128.png" parent="zLu3VVL79DZKazjj4UHu-15" vertex="1">
          <mxGeometry x="60" y="240" width="50" height="50" as="geometry" />
        </mxCell>
        <mxCell id="zLu3VVL79DZKazjj4UHu-27" value="" style="shape=image;html=1;verticalAlign=top;verticalLabelPosition=bottom;labelBackgroundColor=#ffffff;imageAspect=0;aspect=fixed;image=https://cdn1.iconfinder.com/data/icons/seo-and-web-development-6/32/development_picture_illustration_design_image-128.png" parent="zLu3VVL79DZKazjj4UHu-15" vertex="1">
          <mxGeometry x="60" y="290" width="50" height="50" as="geometry" />
        </mxCell>
        <mxCell id="zLu3VVL79DZKazjj4UHu-28" value="" style="shape=image;html=1;verticalAlign=top;verticalLabelPosition=bottom;labelBackgroundColor=#ffffff;imageAspect=0;aspect=fixed;image=https://cdn1.iconfinder.com/data/icons/seo-and-web-development-6/32/development_picture_illustration_design_image-128.png" parent="zLu3VVL79DZKazjj4UHu-15" vertex="1">
          <mxGeometry x="60" y="335" width="50" height="50" as="geometry" />
        </mxCell>
        <mxCell id="zLu3VVL79DZKazjj4UHu-30" value="" style="shape=image;html=1;verticalAlign=top;verticalLabelPosition=bottom;labelBackgroundColor=#ffffff;imageAspect=0;aspect=fixed;image=https://cdn1.iconfinder.com/data/icons/seo-and-web-development-6/32/development_picture_illustration_design_image-128.png" parent="zLu3VVL79DZKazjj4UHu-15" vertex="1">
          <mxGeometry x="60" y="390" width="50" height="50" as="geometry" />
        </mxCell>
        <mxCell id="zLu3VVL79DZKazjj4UHu-32" value="&lt;p style=&quot;line-height: 1.3;&quot;&gt;&lt;span style=&quot;font-size: 13px;&quot;&gt;Dark Knight (2014)&lt;/span&gt;&lt;br&gt;&lt;/p&gt;" style="text;strokeColor=none;fillColor=none;html=1;fontSize=24;fontStyle=1;verticalAlign=middle;align=center;" parent="zLu3VVL79DZKazjj4UHu-15" vertex="1">
          <mxGeometry x="130" y="230" width="90" height="40" as="geometry" />
        </mxCell>
        <mxCell id="zLu3VVL79DZKazjj4UHu-33" value="&lt;p style=&quot;line-height: 1.3;&quot;&gt;&lt;font style=&quot;font-size: 10px; font-weight: normal;&quot;&gt;Action&lt;/font&gt;&lt;/p&gt;" style="text;strokeColor=none;fillColor=none;html=1;fontSize=24;fontStyle=1;verticalAlign=middle;align=center;" parent="zLu3VVL79DZKazjj4UHu-15" vertex="1">
          <mxGeometry x="90" y="245" width="90" height="40" as="geometry" />
        </mxCell>
        <mxCell id="zLu3VVL79DZKazjj4UHu-47" value="&lt;p style=&quot;line-height: 1.3;&quot;&gt;&lt;span style=&quot;font-size: 13px;&quot;&gt;Dark Knight (2016)&lt;/span&gt;&lt;br&gt;&lt;/p&gt;" style="text;strokeColor=none;fillColor=none;html=1;fontSize=24;fontStyle=1;verticalAlign=middle;align=center;" parent="zLu3VVL79DZKazjj4UHu-15" vertex="1">
          <mxGeometry x="130" y="285" width="90" height="40" as="geometry" />
        </mxCell>
        <mxCell id="zLu3VVL79DZKazjj4UHu-48" value="&lt;p style=&quot;line-height: 1.3;&quot;&gt;&lt;font style=&quot;font-size: 10px; font-weight: normal;&quot;&gt;Action&lt;/font&gt;&lt;/p&gt;" style="text;strokeColor=none;fillColor=none;html=1;fontSize=24;fontStyle=1;verticalAlign=middle;align=center;" parent="zLu3VVL79DZKazjj4UHu-15" vertex="1">
          <mxGeometry x="90" y="300" width="90" height="40" as="geometry" />
        </mxCell>
        <mxCell id="zLu3VVL79DZKazjj4UHu-50" value="&lt;p style=&quot;line-height: 1.3;&quot;&gt;&lt;span style=&quot;font-size: 13px;&quot;&gt;Dark Knight (2018)&lt;/span&gt;&lt;br&gt;&lt;/p&gt;" style="text;strokeColor=none;fillColor=none;html=1;fontSize=24;fontStyle=1;verticalAlign=middle;align=center;" parent="zLu3VVL79DZKazjj4UHu-15" vertex="1">
          <mxGeometry x="130" y="330" width="90" height="40" as="geometry" />
        </mxCell>
        <mxCell id="zLu3VVL79DZKazjj4UHu-51" value="&lt;p style=&quot;line-height: 1.3;&quot;&gt;&lt;font style=&quot;font-size: 10px; font-weight: normal;&quot;&gt;Action&lt;/font&gt;&lt;/p&gt;" style="text;strokeColor=none;fillColor=none;html=1;fontSize=24;fontStyle=1;verticalAlign=middle;align=center;" parent="zLu3VVL79DZKazjj4UHu-15" vertex="1">
          <mxGeometry x="90" y="345" width="90" height="40" as="geometry" />
        </mxCell>
        <mxCell id="zLu3VVL79DZKazjj4UHu-53" value="&lt;p style=&quot;line-height: 1.3;&quot;&gt;&lt;span style=&quot;font-size: 13px;&quot;&gt;Dark Knight (2020)&lt;/span&gt;&lt;br&gt;&lt;/p&gt;" style="text;strokeColor=none;fillColor=none;html=1;fontSize=24;fontStyle=1;verticalAlign=middle;align=center;" parent="zLu3VVL79DZKazjj4UHu-15" vertex="1">
          <mxGeometry x="130" y="380" width="90" height="40" as="geometry" />
        </mxCell>
        <mxCell id="zLu3VVL79DZKazjj4UHu-54" value="&lt;p style=&quot;line-height: 1.3;&quot;&gt;&lt;font style=&quot;font-size: 10px; font-weight: normal;&quot;&gt;Action&lt;/font&gt;&lt;/p&gt;" style="text;strokeColor=none;fillColor=none;html=1;fontSize=24;fontStyle=1;verticalAlign=middle;align=center;" parent="zLu3VVL79DZKazjj4UHu-15" vertex="1">
          <mxGeometry x="90" y="395" width="90" height="40" as="geometry" />
        </mxCell>
        <mxCell id="zLu3VVL79DZKazjj4UHu-57" value="" style="shape=image;html=1;verticalAlign=top;verticalLabelPosition=bottom;labelBackgroundColor=#ffffff;imageAspect=0;aspect=fixed;image=https://cdn2.iconfinder.com/data/icons/font-awesome/1792/hand-pointer-o-128.png;fontSize=10;" parent="zLu3VVL79DZKazjj4UHu-15" vertex="1">
          <mxGeometry x="238" y="256" width="34" height="34" as="geometry" />
        </mxCell>
        <mxCell id="zLu3VVL79DZKazjj4UHu-22" value="" style="rounded=0;whiteSpace=wrap;html=1;" parent="zLu3VVL79DZKazjj4UHu-15" vertex="1">
          <mxGeometry y="120" width="700" height="60" as="geometry" />
        </mxCell>
        <mxCell id="zLu3VVL79DZKazjj4UHu-23" value="Movie fight" style="text;strokeColor=none;fillColor=none;html=1;fontSize=24;fontStyle=1;verticalAlign=middle;align=center;" parent="1" vertex="1">
          <mxGeometry x="970" y="230" width="100" height="40" as="geometry" />
        </mxCell>
      </root>
    </mxGraphModel>
  </diagram>
</mxfile>
